HIERARCHY
ROOT root
{
	OFFSET	0	13.1	24.9
	CHANNELS 6  Xposition Yposition Zposition Xrotation Yrotation Zrotation
	JOINT spine_1
	{
		OFFSET	0	9.99999	0
		CHANNELS 3  Xrotation Yrotation Zrotation
		JOINT spine_2
		{
			OFFSET	0	112	-10
			CHANNELS 3  Xrotation Yrotation Zrotation
			JOINT spine_3
			{
				OFFSET	0	206.5	19.3
				CHANNELS 3  Xrotation Yrotation Zrotation
				JOINT spine_4
				{
					OFFSET	0	110.4	14.6
					CHANNELS 3  Xrotation Yrotation Zrotation
					JOINT neck_1
					{
						OFFSET	0	71.8	-50.3
						CHANNELS 3  Xrotation Yrotation Zrotation
						JOINT neck_2
						{
							OFFSET	0	86.2	-25.8
							CHANNELS 3  Xrotation Yrotation Zrotation
							JOINT head_ee
							{
								OFFSET	0	179.8	-8.7
								CHANNELS 3  Xrotation Yrotation Zrotation
								End Site
								{
									OFFSET	1	0	0
								}
							}
						}
					}
					JOINT left_clavicle
					{
						OFFSET	-43.2	22.4	-70.8
						CHANNELS 3  Xrotation Yrotation Zrotation
						JOINT left_shoulder
						{
							OFFSET	-93.9	-5.79999	48.7
							CHANNELS 3  Xrotation Yrotation Zrotation
							JOINT left_elbow
							{
								OFFSET	-291.4	-30.8	15.2
								CHANNELS 3  Xrotation Yrotation Zrotation
								JOINT left_lowarm_twist
								{
									OFFSET	-110.7	-3.89999	13.6
									CHANNELS 3  Xrotation Yrotation Zrotation
									JOINT left_hand
									{
										OFFSET	-110.7	-3.89999	13.6
										CHANNELS 3  Xrotation Yrotation Zrotation
										JOINT left_ee
										{
											OFFSET	-80.8	-5.10001	12.1
											CHANNELS 3  Xrotation Yrotation Zrotation
											End Site
											{
												OFFSET	1	0	0
											}
										}
									}
								}
							}
						}
					}
					JOINT right_clavicle
					{
						OFFSET	43.2	22.4	-70.8
						CHANNELS 3  Xrotation Yrotation Zrotation
						JOINT right_shoulder
						{
							OFFSET	93.9	-5.79999	48.7
							CHANNELS 3  Xrotation Yrotation Zrotation
							JOINT right_elbow
							{
								OFFSET	291.4	-30.8	15.2
								CHANNELS 3  Xrotation Yrotation Zrotation
								JOINT right_lowarm_twist
								{
									OFFSET	110.7	-3.89999	13.6
									CHANNELS 3  Xrotation Yrotation Zrotation
									JOINT right_hand
									{
										OFFSET	110.7	-3.89999	13.6
										CHANNELS 3  Xrotation Yrotation Zrotation
										JOINT right_ee
										{
											OFFSET	80.8	-5.10001	12.1
											CHANNELS 3  Xrotation Yrotation Zrotation
											End Site
											{
												OFFSET	1	0	0
											}
										}
									}
								}
							}
						}
					}
				}
			}
		}
	}
	JOINT left_hip
	{
		OFFSET	-82.8	-127.5	0.300001
		CHANNELS 3  Xrotation Yrotation Zrotation
		JOINT left_knee
		{
			OFFSET	-28.2	-396.7	2.2
			CHANNELS 3  Xrotation Yrotation Zrotation
			JOINT left_ankle
			{
				OFFSET	-11.7	-411.3	35.4
				CHANNELS 3  Xrotation Yrotation Zrotation
				JOINT left_toes
				{
					OFFSET	0	-60	-88.6
					CHANNELS 3  Xrotation Yrotation Zrotation
					JOINT left_foot_ee
					{
						OFFSET	-22.5	-16.5	-42.2
						CHANNELS 3  Xrotation Yrotation Zrotation
						End Site
						{
							OFFSET	1	0	0
						}
					}
				}
			}
		}
	}
	JOINT right_hip
	{
		OFFSET	82.8	-127.5	0.300001
		CHANNELS 3  Xrotation Yrotation Zrotation
		JOINT right_knee
		{
			OFFSET	28.2	-396.7	2.2
			CHANNELS 3  Xrotation Yrotation Zrotation
			JOINT right_ankle
			{
				OFFSET	11.7	-411.3	35.4
				CHANNELS 3  Xrotation Yrotation Zrotation
				JOINT right_toes
				{
					OFFSET	0	-60	-88.6
					CHANNELS 3  Xrotation Yrotation Zrotation
					JOINT right_foot_ee
					{
						OFFSET	22.5	-16.5	-42.2
						CHANNELS 3  Xrotation Yrotation Zrotation
						End Site
						{
							OFFSET	1	0	0
						}
					}
				}
			}
		}
	}
}
MOTION
Frames: 16
Frame Time: 0.02
564.441 742.361 -1325.85 179.944 -75.858 176.199 -0.968627 0.477955 2.54064 -0.965091 0.315373 2.56588 -0.948005 -0.273602 2.57066 -0.957202 0.13568 2.58161 1.66023 -4.05366 -5.74229 1.74328 -2.31461 -6.6464 -0.0 0.0 -0.0 6.12182 4.11112 11.8854 -4.99062 -6.23102 58.8401 0.538099 -14.9258 0.0704883 84.6937 -4.38988 -8.85191 -4.79037 17.0571 -22.967 -0.0 0.0 -0.0 11.4903 6.56244 -23.0896 -19.5619 20.8291 -55.6669 0.759321 20.6135 -0.138086 47.939 0.825245 5.89195 1.11398 5.60335 -5.14372 0.0 0.0 0.0 13.4772 6.83073 0.171749 -21.518 0.27451 3.27133 42.3514 24.8831 -5.38393 40.1239 -0.0 -0.0 -0.0 0.0 -0.0 1.89379 -12.3181 11.0642 -4.69079 -0.164512 -0.700898 39.0488 15.6118 5.10091 30.1584 -0.0 -0.0 0.0 0.0 0.0 
579.629 741.031 -1323.81 178.093 -75.461 174.579 -0.932634 0.439849 2.35709 -0.92959 0.289014 2.38028 -0.915069 -0.255889 2.38407 -0.922979 0.12373 2.39456 1.69591 -3.04481 -3.50159 1.7273 -2.42036 -4.10259 -0.0 0.0 -0.0 6.1528 4.05485 11.9442 -4.88133 -6.38286 58.9919 0.521024 -14.4724 0.0661555 84.0809 -4.31682 -8.82288 -4.9341 18.6936 -22.7885 -0.0 0.0 -0.0 11.6517 6.18929 -23.4361 -20.1964 20.2806 -55.7157 0.716772 19.5483 -0.123477 48.1163 0.837278 5.91119 1.13127 6.57239 -4.85194 0.0 0.0 0.0 11.2409 4.64771 0.590502 -19.7416 0.298624 2.99982 41.9389 24.7081 -5.34032 40.0529 -0.0 -0.0 -0.0 0.0 -0.0 1.46193 -11.4605 10.8908 -7.56144 -0.236678 -1.13548 39.1064 15.5079 5.10267 30.4603 -0.0 -0.0 0.0 0.0 0.0 
586.919 739.854 -1327.46 178.189 -74.942 174.71 -0.749195 0.485323 2.05533 -0.746914 0.353583 2.08203 -0.732158 -0.118833 2.10849 -0.738298 0.215579 2.1008 1.70896 -1.97706 -2.16085 1.72109 -1.66623 -2.54049 -0.0 0.0 -0.0 6.22679 3.87997 12.0848 -4.6733 -6.59609 59.0364 0.567514 -15.7024 0.078257 84.8466 -4.40816 -8.85903 -4.85865 19.8385 -21.4902 -0.0 0.0 -0.0 11.6664 4.70799 -23.4176 -21.4498 19.5014 -55.6129 0.674158 18.4672 -0.109597 47.927 0.82443 5.89064 1.13935 7.23144 -4.62736 0.0 0.0 0.0 8.69313 2.86365 1.36633 -21.6635 0.272163 3.29353 43.3745 23.2227 -5.42043 40.3064 -0.0 -0.0 -0.0 0.0 -0.0 1.40683 -10.2909 9.93461 -9.62516 -0.275057 -1.44982 38.6639 15.4848 5.06173 30.6669 -0.0 -0.0 0.0 0.0 0.0 
595.564 732.92 -1333.39 175.939 -74.5515 172.701 -0.809119 0.497647 1.75944 -0.807478 0.3847 1.78753 -0.793974 -0.0248671 1.82827 -0.798542 0.264138 1.80927 1.38215 -0.858689 -1.46754 1.38774 -0.289187 -1.681 -0.0 0.0 -0.0 6.03007 3.69457 11.711 -4.19637 -6.88813 58.8805 0.637018 -17.5137 0.0981257 85.3812 -4.47222 -8.88356 -4.80645 20.8833 -20.4242 -0.0 0.0 -0.0 11.4184 3.41542 -22.8212 -22.4953 19.0675 -55.5304 0.654995 17.9765 -0.103605 47.9675 0.827178 5.89505 1.16992 8.06405 -4.48007 0.0 0.0 0.0 6.75557 -0.734996 0.858606 -22.0008 0.266504 3.34497 42.5779 21.8976 -5.31059 39.9365 -0.0 -0.0 -0.0 0.0 -0.0 1.90546 -9.20764 10.5544 -11.0915 -0.295433 -1.67389 38.3793 15.2013 5.0264 30.6786 -0.0 -0.0 0.0 0.0 0.0 
600.934 731.552 -1329.87 174.375 -73.4397 172.835 -0.802472 0.484753 1.41265 -0.801448 0.39389 1.44062 -0.790519 0.0617839 1.49221 -0.793504 0.29665 1.46374 1.14177 -0.0347672 -1.01105 1.14566 0.780003 -1.10522 -0.0 0.0 -0.0 5.99144 3.35304 11.6363 -3.74904 -7.27348 58.8155 0.690376 -18.8803 0.11479 85.725 -4.51353 -8.89901 -4.76447 21.6153 -19.6484 -0.0 0.0 -0.0 11.4828 2.58188 -22.9189 -22.5243 19.1796 -56.0616 0.657712 18.0463 -0.104445 47.9973 0.829194 5.89828 1.19632 8.64849 -4.4092 0.0 0.0 0.0 5.45136 -3.26655 0.48801 -22.226 0.262557 3.3793 42.0767 20.8888 -5.23863 39.7029 -0.0 -0.0 -0.0 0.0 -0.0 2.17008 -8.53869 10.9298 -12.5371 -0.309902 -1.89522 38.173 14.9966 5.00084 30.6861 -0.0 -0.0 0.0 0.0 0.0 
607.579 731.128 -1326.85 173.553 -71.6431 172.583 -0.816549 0.466553 1.14364 -0.815907 0.39284 1.17101 -0.807166 0.120692 1.22923 -0.809137 0.313297 1.19475 0.971519 0.747387 -1.91907 0.992656 2.91553 -2.0176 -0.0 0.0 -0.0 5.88362 3.18181 11.4297 -3.37923 -6.79038 58.9005 0.78776 -21.3173 0.148262 85.5103 -4.48773 -8.88939 -4.44205 22.9178 -16.7656 -0.0 0.0 -0.0 11.0421 0.942491 -21.8845 -22.2017 19.4855 -57.111 0.776178 21.0315 -0.144079 48.0087 0.829968 5.89952 1.01126 10.4493 -2.38499 0.0 0.0 0.0 3.84014 -8.24553 0.601804 -22.36 0.260143 3.39973 42.2725 19.6146 -5.22376 39.7037 -0.0 -0.0 -0.0 0.0 -0.0 3.9411 -8.27012 7.65912 -17.5702 -0.316648 -2.66717 38.5831 18.1022 5.14733 31.0143 -0.0 -0.0 0.0 0.0 0.0 
609.339 732.114 -1324.92 173.968 -70.2648 174.034 -0.832165 0.455173 0.956599 -0.831742 0.393383 0.983621 -0.824462 0.162857 1.04677 -0.825842 0.326123 1.00792 0.80179 1.31093 -2.55727 0.84371 4.43981 -2.65181 -0.0 0.0 -0.0 5.74442 3.04877 11.1631 -3.17523 -6.63255 58.9562 0.858114 -23.0294 0.174817 85.32 -4.46488 -8.88078 -4.21008 23.8547 -14.7517 -0.0 0.0 -0.0 10.7149 -0.164026 -21.1301 -21.9743 19.6745 -57.7659 0.861755 23.1168 -0.176245 48.0558 0.833169 5.90463 0.879945 11.7045 -0.958132 0.0 0.0 0.0 3.08996 -12.1735 -0.320106 -21.7852 0.270156 3.31209 42.3942 18.6106 -5.21101 39.7073 -0.0 -0.0 -0.0 0.0 -0.0 5.61225 -8.00985 6.27203 -21.1029 -0.2809 -3.20794 38.7401 20.2046 5.24715 31.2463 -0.0 -0.0 0.0 0.0 0.0 
616.922 732.089 -1325.01 175.402 -68.6034 176.337 -1.17564 0.338696 0.782122 -1.17535 0.288243 0.802087 -1.17093 0.0959565 0.846886 -1.17186 0.228498 0.821106 0.494613 1.92878 -3.13596 0.562732 6.00888 -3.20351 -0.0 0.0 -0.0 5.65028 2.8423 10.9811 -2.89406 -6.62322 58.9381 0.919718 -24.4937 0.199642 85.1892 -4.44919 -8.87482 -3.94387 24.5014 -12.7684 -0.0 0.0 -0.0 10.4246 -1.28411 -20.4582 -21.7258 19.8672 -58.4602 0.924305 24.6014 -0.201547 48.0115 0.83016 5.89982 0.792402 12.4622 -0.041302 0.0 0.0 0.0 2.56157 -14.9381 -1.03343 -18.05 0.313751 2.74073 40.6478 18.1091 -5.04613 39.655 -0.0 -0.0 -0.0 0.0 -0.0 6.78092 -7.87852 5.12601 -23.7867 -0.231496 -3.61677 38.0325 21.5757 5.24103 31.4201 -0.0 -0.0 0.0 0.0 0.0 
618.949 745.493 -1325.26 178.949 -67.9041 -179.583 -1.25224 -0.0356052 0.584325 -1.25206 -0.0727145 0.580876 -1.25268 -0.205219 0.548261 -1.25308 -0.116057 0.57379 1.25151 2.51391 -3.52147 1.35128 7.37208 -3.62216 -0.0 0.0 -0.0 5.57495 2.40618 10.8308 -2.55487 -6.74777 58.5236 0.965522 -25.5609 0.21902 84.5657 -4.3746 -8.84591 -3.12294 21.9679 -9.44952 -0.0 0.0 -0.0 10.2833 -2.05773 -20.1181 -21.5305 19.9248 -59.0339 0.968297 25.625 -0.220219 48.2757 0.848152 5.92846 0.706219 12.6031 0.599926 0.0 0.0 0.0 0.866437 -17.6209 -1.74929 -12.4345 0.309059 1.8795 39.9055 17.6954 -4.97058 39.9262 -0.0 -0.0 -0.0 0.0 -0.0 11.2442 -7.32487 3.37955 -28.2754 -0.106247 -4.29409 36.399 22.0656 5.1032 31.2049 -0.0 -0.0 0.0 0.0 0.0 
622.188 742.588 -1328.22 179.108 -67.8441 -179.022 -1.35842 -0.295212 0.453353 -1.35837 -0.323461 0.43365 -1.36087 -0.415726 0.346196 -1.36086 -0.355833 0.407507 2.68418 3.0853 -3.85698 2.8281 8.66389 -4.06525 -0.0 0.0 -0.0 5.60307 2.00235 10.8784 -2.63171 -8.65601 58.2698 1.0072 -26.5158 0.237316 84.3041 -4.34339 -8.83354 -1.86474 15.0391 -5.40751 -0.0 0.0 -0.0 10.6209 -2.8578 -20.749 -21.4498 19.1413 -58.0482 0.934422 24.8383 -0.205778 49.8979 0.961509 6.10248 0.473962 7.77783 0.101341 0.0 0.0 0.0 -1.01747 -19.6354 -1.97052 -8.29536 0.251624 1.24711 39.1854 17.4305 -4.8993 40.0345 -0.0 -0.0 -0.0 0.0 -0.0 18.7172 -5.22969 1.97263 -40.1028 0.473321 -6.01267 38.1165 21.1722 5.2308 30.3143 -0.0 -0.0 0.0 0.0 0.0 
630.106 746.786 -1326.73 178.977 -67.8244 -178.887 -1.50786 -0.464458 0.362065 -1.50792 -0.486556 0.331777 -1.5109 -0.551089 0.207633 -1.5106 -0.511381 0.292064 3.58298 3.54651 -4.12229 3.76815 9.69024 -4.41639 -0.0 0.0 -0.0 5.47485 1.64549 10.625 -2.83655 -10.7399 58.0996 1.1027 -28.6446 0.281542 84.1211 -4.3216 -8.8248 -0.711178 9.14417 -0.783889 -0.0 0.0 -0.0 10.7263 -3.36923 -20.9225 -21.3741 18.5914 -57.3171 0.910737 24.2823 -0.195933 51.9599 1.11266 6.31898 0.385412 2.852 -1.38378 0.0 0.0 0.0 -2.86455 -19.9596 -2.87799 -5.46701 0.186174 0.818053 39.97 17.0034 -4.96341 40.151 -0.0 -0.0 -0.0 0.0 -0.0 25.6077 -1.91847 3.14593 -47.2137 0.988258 -6.97696 37.5854 19.3904 5.10407 29.6745 -0.0 -0.0 0.0 0.0 0.0 
640.003 735.529 -1338.53 -178.519 -67.5378 -177.147 -1.11526 -0.549606 0.313758 -1.11539 -0.568457 0.278148 -1.11835 -0.61708 0.14043 -1.11789 -0.587157 0.236127 4.66513 3.8321 -4.33071 4.88923 10.3539 -4.74634 -0.0 0.0 -0.0 5.41294 1.23419 10.4968 -3.01754 -12.8283 57.8932 1.19829 -30.6921 0.328862 83.9886 -4.30584 -8.81843 0.141929 5.07473 3.05502 -0.0 0.0 -0.0 10.3444 -2.64966 -20.2017 -21.3644 18.3065 -56.1658 0.893801 23.8817 -0.189023 53.761 1.25103 6.50359 0.325532 -0.599784 -2.42368 0.0 0.0 0.0 -2.12956 -19.4301 -0.818858 -3.47557 0.127416 0.518091 40.6981 16.6817 -5.02303 40.1388 -0.0 -0.0 -0.0 0.0 -0.0 29.1402 0.735604 4.11681 -52.1453 1.4141 -7.60546 38.0581 18.2841 5.1053 29.5254 -0.0 -0.0 0.0 0.0 0.0 
652.527 743.255 -1344.93 -178.602 -66.6593 -177.815 -1.17635 -0.599672 0.354951 -1.1765 -0.621043 0.316073 -1.18017 -0.677138 0.164556 -1.17963 -0.642651 0.269436 3.72811 4.17275 -4.36261 3.9578 10.9796 -4.6679 -0.0 0.0 -0.0 5.83406 0.978283 11.3091 -3.0231 -14.3477 57.8997 1.2702 -32.1774 0.366365 83.8159 -4.28531 -8.81007 0.905375 2.18136 6.94218 -0.0 0.0 -0.0 9.73118 -2.5121 -18.9703 -23.5881 19.0168 -56.2967 0.886173 23.7004 -0.185945 55.1362 1.36055 6.64159 0.556334 -3.79999 -5.27081 0.0 0.0 0.0 -1.59261 -17.5515 0.607683 -2.40793 0.0916279 0.358151 41.4586 17.4358 -5.10465 40.1299 -0.0 -0.0 -0.0 0.0 -0.0 31.6502 2.46568 4.46742 -54.3713 1.62381 -7.87685 38.4367 17.5307 5.11228 29.4026 -0.0 -0.0 0.0 0.0 0.0 
665.58 742.978 -1345.45 -179.925 -65.2705 -178.633 -1.27164 -0.0766108 0.251676 -1.27161 -0.0924703 0.246291 -1.272 -0.147049 0.218144 -1.27205 -0.110752 0.23863 2.20848 3.30891 -6.23134 2.48964 11.0558 -6.65062 -0.0 0.0 -0.0 6.22944 1.32208 12.0826 -3.8063 -17.4296 58.3227 1.43489 -35.4032 0.457998 82.6177 -4.14361 -8.75039 1.47495 0.508877 10.1061 -0.0 0.0 -0.0 9.32113 -2.61061 -18.1422 -24.8211 19.5699 -56.5986 0.895899 23.9315 -0.189873 57.3702 1.54547 6.8601 0.576736 -8.67563 -7.34448 0.0 0.0 0.0 -2.81224 -14.7392 0.71243 -3.11793 0.11576 0.464442 42.0094 18.8965 -5.18396 40.148 -0.0 -0.0 -0.0 0.0 -0.0 33.1 0.589645 6.37127 -53.2185 1.51388 -7.7373 37.2809 19.4134 5.07571 28.778 -0.0 -0.0 0.0 0.0 0.0 
680.566 743.167 -1347.84 179.607 -65.0833 -179.426 -1.22312 0.0351122 0.233544 -1.22309 0.0201801 0.235305 -1.22298 -0.03472 0.233602 -1.22306 0.0026087 0.236154 2.43384 2.80189 -6.73001 2.72903 10.5979 -7.27128 -0.0 0.0 -0.0 5.74686 1.25602 11.1441 -3.89868 -19.7787 58.1037 1.66825 -39.5672 0.600103 81.838 -4.05208 -8.70996 1.94784 -0.329356 12.9967 -0.0 0.0 -0.0 8.72821 -3.50373 -16.9225 -26.3716 19.7394 -56.5714 0.929774 24.7296 -0.20383 58.556 1.64707 6.97313 0.598619 -12.1011 -8.80547 0.0 0.0 0.0 -4.92687 -11.7064 1.62279 -4.29806 0.152948 0.641736 41.5888 22.9525 -5.25269 40.2743 -0.0 -0.0 -0.0 0.0 -0.0 34.0205 -0.546812 7.44182 -46.312 0.916352 -6.85825 34.4281 20.0144 4.81358 27.5961 -0.0 -0.0 0.0 0.0 0.0 
696.632 733.083 -1345.68 179.099 -63.3558 179.943 -1.20523 0.111796 0.230343 -1.2052 0.0969121 0.23699 -1.20477 0.0396285 0.252954 -1.20485 0.0790805 0.243521 2.52035 2.34535 -5.79278 2.73668 9.01052 -6.26373 -0.0 0.0 -0.0 5.55511 1.62705 10.7795 -4.25168 -21.2873 57.9573 1.95497 -44.0766 0.791444 81.09 -3.9648 -8.67001 2.30938 -1.01054 15.22 -0.0 0.0 -0.0 8.28095 -4.0636 -16.0241 -27.7969 20.4563 -56.1937 0.949235 25.1836 -0.212041 58.9261 1.67926 7.00799 0.457504 -16.8767 -9.70037 0.0 0.0 0.0 -5.85368 -7.92371 2.96822 -5.06757 0.175226 0.75773 39.6431 26.0343 -5.16796 39.8438 -0.0 -0.0 -0.0 0.0 -0.0 33.9602 -3.30776 8.64827 -41.4812 0.563676 -6.20437 33.5232 23.6123 4.87423 27.8076 -0.0 -0.0 0.0 0.0 0.0 
